<svg width="1229" height="1277" xmlns="http://www.w3.org/2000/svg" xmlns:xlink="http://www.w3.org/1999/xlink" xml:space="preserve" overflow="hidden"><g transform="translate(-488 -619)"><path d="M1022.91 974.869C312.246 525.636 484.865 1954.42 1033.57 1763.9 1097.95 1741.54 1098.28 1741.92 1166.7 1764.08 1773.38 1960.61 1900.71 345.708 1022.91 974.869Z" stroke="#000000" stroke-width="130.625" stroke-miterlimit="8" fill-rule="evenodd"/><path d="M172.858 243 14.3179 243C9.88149 243 6.23603 241.817 3.38166 239.45 0.095068 236.82-0.796059 233.27 0.708745 228.799 2.6619 223.013 60.092 146.747 172.999 0 189.624 146.484 196.827 223.013 194.609 229.588 191.591 238.529 184.341 243 172.858 243Z" stroke="#000000" stroke-width="130.625" stroke-miterlimit="8" fill-rule="evenodd" transform="matrix(1 0 0 -1 836.5 927.5)"/><g><g><g><g><path d="M1066.78 982.355 1347.56 982.355 1332.2 1016.21C1278.78 1124.98 1198.75 1210.28 1096.58 1237.79L1066.78 1243.47ZM705.307 982.355 1018.88 982.355 1018.88 1247.01 1014.52 1247.02C985.791 1245.99 955.702 1240.67 924.33 1230.5 855.968 1208.34 855.643 1207.96 791.314 1230.31 765.619 1239.24 740.748 1244.61 716.753 1246.79L705.307 1247.33ZM374.473 982.355 657.411 982.355 657.411 1245.36 647.462 1244.08C534.22 1224.38 445.208 1130.76 387.366 1011.13ZM1066.78 615.307 1405.37 615.307 1407.83 643.73C1411.95 727.59 1401.05 817.137 1376.6 900.887L1365.81 934.447 1066.78 934.447ZM705.307 615.307 1018.88 615.307 1018.88 934.447 705.307 934.447ZM315.028 615.307 657.411 615.307 657.411 934.447 355.759 934.447 343.91 897.723C316.467 804.426 305.904 705.214 314.732 617.408ZM532.079 353.622C561.569 353.01 594.226 357.812 630.177 368.88L657.411 378.25 657.411 567.396 322.42 567.396 330.116 534.047C359.493 429.677 424.831 355.849 532.079 353.622ZM1018.88 314.858 1018.88 567.396 705.307 567.396 705.307 399.269 716.678 404.722C737.161 415.198 758.485 427.4 780.675 441.436 856.037 387.377 923.993 349.889 984.856 326.398ZM1146.54 295.337C1285.97 301.051 1366.09 407.14 1395.58 546.572L1399.06 567.396 1066.78 567.396 1066.78 302.324 1070.89 301.335C1097.82 296.265 1123.03 294.373 1146.54 295.337ZM607.842 150.91 767.076 150.91C778.609 150.91 785.887 155.367 788.917 164.281 791.146 170.836 783.914 247.131 767.215 393.167 653.812 246.869 596.13 170.836 594.173 165.068 592.659 160.611 593.552 157.071 596.855 154.449 599.722 152.089 603.385 150.91 607.842 150.91Z" fill="#24A148" fill-rule="evenodd" transform="matrix(1.00091 0 0 1 241.029 533.09)"/><path d="M486.853 716.654 458.534 789.973 518.171 789.973ZM842.902 694.987 842.902 762.647 870.554 762.647C870.995 762.868 871.5 762.978 872.051 762.978 872.608 762.978 872.997 762.978 873.218 762.978 880.769 762.978 887.322 762.31 892.877 760.981 898.426 759.646 903.092 757.76 906.871 755.311 910.643 752.646 913.534 749.146 915.531 744.816 917.527 740.481 918.531 735.425 918.531 729.65 918.531 723.428 917.527 718.152 915.531 713.822 913.534 709.486 910.643 705.986 906.871 703.322 903.092 700.878 897.926 698.986 891.373 697.657 884.826 696.322 876.886 695.655 867.553 695.655ZM1116.42 666.326 1244.68 666.326 1244.68 693.989 1224.69 693.989C1221.36 694.436 1218.53 694.987 1216.2 695.655 1213.87 696.322 1212.03 697.21 1210.7 698.319 1209.37 699.433 1208.37 700.989 1207.7 702.985 1207.04 704.988 1206.71 707.431 1206.71 710.322L1206.71 859.967 1252.68 859.967C1264.45 860.408 1273.84 858.968 1280.83 855.631 1287.83 852.299 1292.66 847.302 1295.32 840.633 1297.77 833.969 1299.66 826.523 1300.99 818.304 1302.32 810.085 1303.1 801.193 1303.32 791.639L1334.97 790.978 1334.97 888.628 1116.42 888.628 1116.42 861.296 1133.74 861.296C1134.19 861.522 1134.63 861.633 1135.08 861.633 1135.52 861.633 1135.85 861.633 1136.07 861.633 1138.74 861.633 1141.07 861.354 1143.07 860.797 1145.07 860.245 1146.63 859.409 1147.73 858.301 1149.06 857.186 1150.07 855.631 1150.74 853.634 1151.4 851.632 1151.73 849.188 1151.73 846.298L1151.73 709.654C1151.73 707.211 1151.4 704.988 1150.74 702.985 1150.07 700.989 1149.06 699.433 1147.73 698.319 1146.4 697.21 1144.57 696.322 1142.24 695.655 1139.9 694.987 1137.07 694.656 1133.74 694.656L1116.42 693.989ZM752.612 666.326 899.203 666.326C911.868 666.773 922.972 668.381 932.52 671.161 942.073 673.935 950.072 677.992 956.508 683.321 962.951 688.655 967.838 695.214 971.17 702.985 974.502 710.763 976.167 719.876 976.167 730.318 976.167 740.539 974.444 749.535 971.002 757.313 967.56 765.091 962.394 771.533 955.51 776.641 948.626 781.755 939.908 785.585 929.356 788.145 918.804 790.699 906.534 791.976 892.54 791.976L842.902 791.308 842.902 845.636C842.902 848.747 843.233 851.353 843.901 853.466 844.568 855.579 845.566 857.186 846.896 858.301 848.231 859.409 850.065 860.245 852.398 860.797 854.725 861.354 857.558 861.633 860.89 861.633L881.883 860.965 881.883 888.628 752.612 888.628 752.612 861.296 769.937 861.296C770.378 861.522 770.825 861.633 771.272 861.633 771.713 861.633 772.044 861.633 772.271 861.633 774.935 861.633 777.268 861.354 779.265 860.797 781.267 860.245 782.817 859.409 783.931 858.301 785.26 857.186 786.265 855.631 786.926 853.634 787.594 851.632 787.93 849.188 787.93 846.298L787.93 709.654C787.93 707.211 787.594 704.988 786.926 702.985 786.265 700.989 785.26 699.433 783.931 698.319 782.596 697.21 780.762 696.322 778.435 695.655 776.101 694.987 773.269 694.656 769.937 694.656L752.612 693.989ZM472.86 666.326 523.502 666.326 592.798 825.971C593.245 827.08 593.576 828.026 593.802 828.804 594.023 829.582 594.353 830.301 594.8 830.969 595.021 831.857 595.299 832.635 595.63 833.302 595.967 833.969 596.246 834.637 596.466 835.305 596.907 835.966 597.244 836.634 597.464 837.301 597.685 837.969 598.022 838.636 598.463 839.304 598.683 839.971 598.962 840.581 599.299 841.132 599.629 841.689 599.908 842.188 600.129 842.635 601.905 845.967 603.849 848.857 605.962 851.301 608.069 853.745 610.234 855.631 612.457 856.966 614.9 858.521 617.953 859.63 621.622 860.297 625.284 860.965 629.782 861.296 635.111 861.296L635.111 888.628 511.841 888.628 511.841 860.634 523.502 860.634C523.946 860.855 524.279 860.965 524.501 860.965 524.723 860.965 525.056 860.965 525.501 860.965 525.722 860.965 526 860.965 526.334 860.965 526.667 860.965 526.944 860.965 527.167 860.965 529.609 860.965 531.719 860.797 533.497 860.466 535.273 860.129 536.828 859.746 538.161 859.299 539.716 858.632 540.882 857.744 541.659 856.635 542.436 855.521 542.825 854.186 542.825 852.63 542.825 851.521 542.714 850.355 542.492 849.136 542.27 847.911 541.937 846.524 541.492 844.969 541.048 843.634 540.549 842.246 539.993 840.801 539.438 839.356 538.938 837.858 538.494 836.303 538.272 835.856 538.05 835.415 537.828 834.968 537.605 834.527 537.384 834.08 537.161 833.639 536.939 833.192 536.717 832.745 536.495 832.304 536.273 831.857 536.051 831.305 535.829 830.638 535.385 829.523 534.94 828.467 534.496 827.469 534.052 826.47 533.607 825.524 533.163 824.636 532.719 823.528 532.331 822.582 531.997 821.804 531.664 821.026 531.275 820.196 530.831 819.302L530.831 818.641 447.873 818.641C447.651 819.302 447.429 819.859 447.206 820.306 446.985 820.747 446.873 821.194 446.873 821.635 446.651 822.303 446.429 822.86 446.207 823.301 445.985 823.748 445.763 824.195 445.541 824.636 445.319 825.524 445.041 826.412 444.707 827.3 444.374 828.194 443.986 829.082 443.541 829.97 443.32 830.638 443.042 831.305 442.709 831.967 442.375 832.635 442.098 833.302 441.876 833.969 441.654 834.19 441.487 834.469 441.376 834.799 441.265 835.136 441.209 835.415 441.209 835.635 440.988 836.082 440.821 836.413 440.71 836.634 440.599 836.86 440.543 837.191 440.543 837.638 439.877 838.967 439.377 840.302 439.044 841.637 438.711 842.966 438.322 844.301 437.878 845.636 437.656 846.965 437.434 848.3 437.211 849.635 436.989 850.964 436.878 852.189 436.878 853.298 436.878 854.853 437.156 856.246 437.711 857.465 438.267 858.69 439.21 859.52 440.543 859.967 441.654 860.408 443.486 860.744 446.041 860.965 448.595 861.186 451.76 861.296 455.536 861.296L465.198 860.634 465.198 888.628 366.247 888.628 366.247 860.634C366.469 860.855 366.747 860.965 367.08 860.965 367.413 860.965 367.691 860.965 367.913 860.965 368.135 860.965 368.413 860.965 368.746 860.965 369.079 860.965 369.356 860.965 369.579 860.965 373.133 860.965 376.409 860.744 379.407 860.297 382.405 859.856 385.016 859.189 387.237 858.301 389.68 857.186 392.012 855.3 394.233 852.63 396.454 849.966 398.564 846.524 400.563 842.299 401.007 841.19 401.451 840.134 401.896 839.135 402.34 838.137 402.784 837.191 403.229 836.303 403.45 835.856 403.673 835.415 403.895 834.968 404.117 834.527 404.339 833.969 404.561 833.302 404.783 832.861 405.005 832.414 405.228 831.967 405.45 831.526 405.672 831.079 405.894 830.638 405.894 830.411 405.894 830.249 405.894 830.139 405.894 830.023 406.005 829.86 406.227 829.634 406.227 829.634 406.282 829.582 406.394 829.471 406.505 829.361 406.56 829.193 406.56 828.972 406.56 828.746 406.616 828.525 406.727 828.305 406.838 828.078 407.004 827.858 407.227 827.637 407.671 826.97 408.004 826.36 408.226 825.803 408.448 825.246 408.781 824.636 409.226 823.969 409.448 823.528 409.725 822.971 410.059 822.303 410.392 821.635 410.669 820.968 410.891 820.306 411.558 819.192 412.168 817.973 412.724 816.638 413.279 815.303 413.779 813.974 414.223 812.639Z" fill="#DEFBE6" fill-rule="evenodd" transform="matrix(1.00091 0 0 1 241.029 533.09)"/></g></g></g></g><text fill="#DEFBE6" font-family="Clarendon,Clarendon_MSFontService,sans-serif" font-weight="700" font-size="220" transform="matrix(1 0 0 1 1042.01 1713)">?</text></g></svg>